<?xml version="1.0" encoding="UTF-8"?>
<!DOCTYPE svg PUBLIC "-//W3C//DTD SVG 1.1//EN" "http://www.w3.org/Graphics/SVG/1.1/DTD/svg11.dtd">
<!-- Creator: CorelDRAW Standard 2024 -->
<svg xmlns="http://www.w3.org/2000/svg" xml:space="preserve" width="600px" height="600px" version="1.1" style="shape-rendering:geometricPrecision; text-rendering:geometricPrecision; image-rendering:optimizeQuality; fill-rule:evenodd; clip-rule:evenodd"
viewBox="0 0 600 600"
 xmlns:xlink="http://www.w3.org/1999/xlink"
 xmlns:xodm="http://www.corel.com/coreldraw/odm/2003">
 <defs>
  <style type="text/css">
   <![CDATA[
    .str0 {stroke:black;stroke-width:8;stroke-miterlimit:22.9256}
    .str1 {stroke:black;stroke-width:4;stroke-miterlimit:22.9256;stroke-dasharray:8.000000 11.999000}
    .str2 {stroke:white;stroke-width:4;stroke-miterlimit:22.9256;stroke-dasharray:8.000000 11.999000}
    .fil2 {fill:none}
    .fil1 {fill:black}
    .fil0 {fill:white}
   ]]>
  </style>
   <clipPath id="id0">
    <path d="M300 0c165.685,0 300,134.315 300,300 0,165.685 -134.315,300 -300,300 -165.685,0 -300,-134.315 -300,-300 0,-165.685 134.315,-300 300,-300z"/>
   </clipPath>
 </defs>
 <g id="Camada_x0020_1">
  <metadata id="CorelCorpID_0Corel-Layer"/>
  <g>
  </g>
  <g style="clip-path:url(#id0)">
   <g id="_2432928507088">
    <circle class="fil0" cx="299.658" cy="306.106" r="351.87"/>
    <g id="Cabeça">
     <path id="Cabelos" class="fil1" d="M87.2 350.914c5.971,-18.499 -1.853,-16.369 -1.972,-24.922 0.757,-8.95 5.058,-9.23 4.91,-11.49 -0.26,-3.948 -4.144,-2.944 -2.523,-7.607 3.099,-12.323 8.971,-8.205 10.11,-20.985 1.204,-13.512 -2.352,-13.732 -1.711,-16.687 1.591,-7.32 0.768,-11.359 6.878,-18.185 1.582,-2.498 -0.983,-4.006 0.722,-8.299 1.808,-4.551 6.06,-10.208 8.405,-16.759 1.245,-3.478 0.815,-6.992 3.852,-9.669 0.645,-7.375 2.2,-6.489 2.707,-9.828 0.68,-4.478 -0.48,-6.852 0.374,-8.295 2.298,-3.884 -1.661,-9.764 -0.88,-17.859 -0.039,-14.996 10.337,-21.742 21.51,-34.878 2.845,-2.515 3.034,-4.986 7.594,-9.809 7.399,-7.827 17.24,-28.011 24.612,-44.938 8.363,-19.205 12.768,-16.551 20.012,-22.002 26.142,-19.668 54.837,-29.962 82.094,-22.242 14.464,3.299 27.925,-8.291 47.421,-8.329 9.426,-0.018 20.625,4.027 30.947,7.271 11.026,3.466 19.453,5.919 26.662,10.794 4.849,2.08 12.985,-2.188 21.27,11.765 3.411,4.025 8.552,9.3 12.496,15.89 8.683,14.516 12.251,13.02 18.597,27.758 0.814,1.891 3.032,-0.708 3.137,4.239 0.027,1.303 9.807,6.565 12.476,12.244 3.337,7.101 7.224,11.121 9.48,21.339 1.075,4.872 5.075,17.341 5.612,19.499 2.436,9.774 19.213,16.544 24.68,34.748 0.029,21.132 0.421,23.402 0.217,28.438 -1.579,0.635 -2.383,11.728 6.92,22.203 1.992,3.429 5.063,9.436 8.268,15.643 6.202,9.237 5.133,18.267 3.75,27.767 -0.541,8.501 7.948,10.097 10.495,16.428 1.33,3.307 6.619,6.391 6.198,13.083 -0.403,6.406 -3.503,11.703 -5.614,15.809 -1.748,3.4 0.455,1.933 -3.744,7.702 -4.474,10.255 6.56,12.537 5.784,20.509 -0.631,6.496 -3.267,5.456 -3.391,8.416 -0.173,4.112 -1.616,4.933 -1.936,8.335 -3.233,20.683 9.648,22.382 13.555,30.816 5.03,13.07 2.745,12.673 3.769,19.997 -0.144,13.548 -2.263,11.947 -2.465,20.619 0.115,6.042 10.096,14.231 9.342,20.273 1.334,13.082 -3.672,10.387 -4.079,17.77 -0.407,7.382 4.323,4.524 4.253,16.754 -0.07,12.228 -5.29,9.993 -5.574,15.451 -0.284,5.456 2.29,4.414 2.767,8.71 -0.101,4.013 -2.35,2.452 -2.509,4.839 -0.159,2.706 2.293,2.451 2.135,5.156 -0.049,1.42 -2.011,0.586 -2.172,2.06 -0.224,2.037 2.296,3.429 1.942,5.91 -0.567,3.977 -3.877,3.507 -4.416,4.616 -1.986,2.564 1.894,0.624 -0.092,4.06 -1.141,1.889 -3.911,2.162 -1.7,4.084 2.122,1.401 0.283,1.733 1.718,3.022 1.5,1.349 -0.486,3.679 -1.784,4.41 -6.36,2.069 -4.555,1.415 -1.755,5.476 1.47,1.595 2.271,3.407 -0.092,5.24 -2.562,1.987 -1.425,0.952 0.396,4.489 0.491,1.147 1.682,3.784 -2.473,6.058 -1.948,0.539 -8.528,-1.235 -1.401,4.26 3.003,2.316 -2.038,5.511 -2.358,6.538 -0.254,1.406 0.761,3.902 -4.566,4.329 -9.103,0.727 -3.332,-1.756 -6.414,-3.375 -2.378,-1.145 -3.309,-1.119 -1.867,-4.97 1.229,-2.636 -4.129,-0.529 -4.832,-3.834 0.1,-9.467 -1.692,-5.643 -3.635,-8.676 -1.114,-2.864 0.431,-3.675 -1.167,-4.471 -3.284,-1.92 -1.591,-2.392 -3.124,-2.549 -1.63,-0.168 -1.936,-3.404 -0.65,-4.731 1.526,-2.105 -0.302,-2.168 -1.673,-3.861 -1.007,-1.244 -2.824,-0.946 -4.198,-2.083 -0.974,-0.829 -4.37,-3.073 -2.94,-4.116 1.31,-0.955 0.31,-2.249 1.349,-5.058 1.575,-7.923 -8.527,-7.748 -9.068,-13.308 -0.572,-2.078 4.085,-3.096 5.07,-6.928 0.508,-1.98 -7.338,-2.838 -8.093,-5.31 -0.594,-1.944 5.165,-5.594 4.927,-6.431 1.337,-2.049 -1.955,-3.781 -3.257,-4.796 -1.765,-1.376 -6.517,2.188 -8.63,3.28 0.41,5.204 1.158,5.744 -2.825,10.59 0.081,2.54 2.12,2.947 1.536,6.449 -0.705,4.225 -3.448,1.82 -4.881,5.827 -0.341,2.126 2.703,4.717 2.063,7.22 -0.557,2.182 -4.804,4.283 -5.1,6.136 -0.406,3.001 2.222,4.951 1.932,6.888 -0.581,3.877 -3.253,3.3 -3.573,5.702 -0.944,5.459 1.582,3.637 1.405,8.317 -0.069,1.811 -3.063,2.857 -3.463,4.721 -0.239,4.617 6.454,4.872 0.449,9.309 -2.23,1.58 -2.785,0.591 -2.415,5.997 0.015,0.754 -3.482,4.097 -6.549,4.605 -1.438,0.238 -5.569,-1.343 -1.09,-6.783 -1.903,-1.121 -3.515,-1.972 -3.259,-3.776 -1.216,-0.413 -0.714,-2.36 0.959,-4.399 -0.321,-0.584 0.619,-0.179 0.392,-1.223 -0.152,-0.7 -0.608,0.01 -0.836,-0.728 -0.051,0.23 -0.596,0.628 -1.446,0.806 -0.149,3.549 -4.841,4.384 -5.271,7.115 -0.639,-0.054 -2.89,2.582 2.507,5.397 4.16,2.881 2.607,5.204 -2.297,9.401 -1.913,1.588 -2.512,1.921 -2.543,3.24 0.438,2.095 4.191,2.652 5.255,8.31 0.739,3.921 1.121,7.297 -4.641,10.979 -0.989,0.236 -2.711,0.184 -4.268,-0.688 -1.705,-0.957 -5.103,0.096 -7.615,-0.62 -5.218,-1.489 -8.94,-10.225 -7.643,-14.241 0.932,-1.117 2.113,-2.397 3.404,-2.832 2.051,-0.693 0.888,-2.918 1.097,-4.139 0.374,-1.6 -6.592,-4.127 -4.84,-7.896 1.278,-2.635 1.946,-1.543 4.015,-3.93 1.721,-2.573 1.527,-5.204 -2.013,-6.744 -1.849,-0.805 -3.851,-3.793 -3.692,-5.291 0.212,-3.421 4.999,-3.724 4.894,-5.45 -0.086,-3.546 -9.05,-2.843 -8.842,-10.432 0.032,-4.061 3.048,-5.997 2.921,-7.029 0.01,-2.419 -3.184,-2.263 -5.73,-5.127 -3.251,-3.796 2.019,-3.284 -4.062,-12.99 -1.777,-4.553 2.599,-8.901 5.015,-12.08 0.859,-2.272 -2.44,-2.792 -2.44,-6.612 -0.171,-4.578 3.313,-4.788 3.471,-9.068 0.263,-2.488 -6.29,-5.663 -5.728,-9.167 -0.173,-4.24 3.922,-5.308 3.959,-9.219 -0.774,-4.53 -6.614,-5.135 -6,-12.748 -0.044,-4.897 1.119,-4.921 2.715,-9.426 0.765,-2.158 -3.243,-4.752 -3.538,-8.186 -0.389,-8.965 2.072,-9.909 4.539,-12.351 0.396,-1.692 -5.774,-3.229 -4.423,-8.159 0.277,-4.261 4.033,-6.719 4.356,-10.842 -1.273,-1.433 -1.628,-5.004 -0.096,-7.815 1.349,-4.925 3.715,-5.266 2.65,-8.236 -0.637,-3.024 0.401,-4.055 -0.236,-7.078 -3.233,4.588 -2.333,5.038 -4.236,8.758 -4.781,9.346 -5.035,8.337 -10.31,16.306 -0.478,3.66 -2.537,4.564 -3.015,8.223 -5.729,9.867 -11.259,15.05 -12.917,20.799 -1.124,1.539 -4.187,6.979 -8.241,12.912 -5.819,8.515 -10.327,15.116 -13.258,20.236 -2.302,0.803 -2.805,2.896 -3.509,4.139 -4.395,1.155 -3.21,3.666 -10.933,6.363 -5.191,3.56 -14.659,4.787 -22.793,5.297 -4.337,0.272 -10.178,3.464 -11.724,4.237 -4.49,1.255 -3.569,-2.437 -8.291,-0.256 -5.462,1.332 -4.819,2.063 -9.125,1.545 -2.672,-1.069 -5.621,-1.769 -9.912,-1.821 -4.093,0.071 -8.367,-4.056 -11.072,-2.783 -6.219,-0.701 -5.358,-2.374 -8.883,-3.374 -1.271,-0.361 -2.916,0.389 -5.914,-1.15 -8.494,-6.63 -5.637,-1.924 -11.355,-7.722 -1.506,-1.307 -4.131,-2.399 -6.652,-4.085 -2.383,-1.592 -4.644,-3.782 -6.778,-5.035 -5.009,-2.943 -8.037,-5.487 -11.219,-8.239 -2.057,-2.766 -1.643,-5.877 -4.63,-10.366 -1.608,-2.417 -1.363,-4.914 -3.591,-7.662 -0.577,-0.711 0.274,-2.078 -1.733,-4.069 -0.685,-0.836 -2.187,-3.67 -3.384,-1.559 -0.507,1.068 0.025,1.934 -1.078,3.54 -0.584,0.849 -0.05,2.906 -0.64,4.353 -0.634,1.556 0.309,2.831 0.395,3.22 -0.191,0.988 -1.512,2.272 -3.421,4.34 -1.206,1.124 -0.842,1.634 0.431,3.861 0.51,2.084 0.234,3.922 -3.454,5.735 -4.974,2.113 -0.841,3.93 0.274,7.909 1.747,8.391 -2.806,7.991 -5.398,13.557 0.586,3.792 6.154,8.029 5.921,12.025 0.297,5.357 -5.26,6.088 -7.215,11.772 -0.388,3.201 5.365,9.103 5.346,13.327 0.101,4.038 -2.705,4.473 -5.551,7.938 0.195,4.056 1.127,7.375 -0.029,9.467 -1.022,1.627 -4.535,3.598 -1.546,6.945 3.128,3.401 2.037,4.476 1.685,5.668 -0.944,2.668 -2.264,2.954 -1.776,7.423 0.041,3.211 1.147,1.209 1.146,4.46 -0.592,3.823 -3.848,4.761 -7.037,8.6 -1.088,1.454 3.159,3 2.93,6.789 -1.204,5.94 -6.01,5.217 -7.255,8.905 -0.46,2.997 6.163,3.824 5.538,6.124 -0.813,1.333 -4.634,2.103 -4.833,3.517 -0.469,2.496 3.912,3.63 3.976,8.008 -0.04,4.198 -1.471,1.765 -3.23,5.717 -4.111,1.748 -5.516,4.308 -8.727,2.126 -1.201,-0.919 -3.035,-0.439 -7.085,-1.045 -3.436,-0.513 -2.604,-5.007 -1.695,-6.097 2.309,-2.768 -2.842,-6.973 -3.482,-7.648 -2.636,-3.758 2.148,-8.7 3.112,-10.289 1.066,-3.838 -3.842,-2.931 -4.168,-5.786 -0.547,-3.643 -0.374,-6.649 2.845,-9.145 2.462,-4.515 2.838,-7.822 -1.618,-12.459 -3.276,-8.786 -0.493,-11.146 2.289,-13.505 3.154,-2.897 -1.88,-5.742 -2.715,-9.613 -0.49,-8.244 4.893,-14.19 4.576,-15.829 -0.654,-2.173 -5.334,-4.964 -5.541,-7.343 0.099,-7.194 4.292,-9.882 4.288,-13.912 0.151,-12.433 -3.105,-9.489 -3.264,-15.695 -0.115,-3.403 0.301,-5.524 1.021,-7.148 1.046,-2.356 -0.916,-1.256 4.356,-6.323 1.29,-1.299 4.402,-4.892 2.321,-5.056 -1.91,0 0.895,-1.043 -1.014,-1.043 -2.431,0.203 -0.664,2.056 -2.096,3.807 -2.103,2.413 -4.206,1.592 -7.1,5.071 -0.106,1.153 -1.28,0.818 -1.101,4.454 0.202,4.104 -4.92,10.22 -10.425,8.311 -2.254,-0.967 -3.888,-1.383 -4.524,0.367 -0.963,2.826 1.493,0.383 1.756,3.204 0.26,2.777 0.969,7.734 -3.258,9.513 -4.159,1.652 -1.148,2.672 -4.618,6.353 -1.604,1.837 4.311,4.819 4.152,10.99 0.005,4.765 -6.183,5.198 -7.521,9.86 -0.313,4.214 2.675,4.714 2.327,7.725 -0.735,4.623 -7.939,5.118 -8.125,8.95 -0.227,3.179 6.288,4.569 5.2,11.084 -1.179,4.903 -10.421,7.183 -15.901,5.24 -8.169,-0.781 -2.807,5.532 3.335,11.183 5.116,6.171 2.716,7.292 -0.149,8.406 -3.023,0.813 -1.213,1.756 -3.823,1.777 -5.689,0.512 -3.13,3.241 -2.25,4.196 1.233,3.201 -8.944,6.15 -11.633,9.041 -8.554,6.661 -0.114,6.442 -5.056,12.621 -6.527,5.536 -9.477,6.014 -9.365,15.953 0.193,7.874 -5.36,9.452 -13.079,8.932 -4.324,-0.456 -7.331,-0.802 -9.545,-2.91 -5.393,-3.461 -3.776,-9.82 2.601,-12.011 -0.372,-6.971 4.805,-6.858 5.125,-9.514 0.252,-2.778 -4.55,-6.521 -4.086,-9.043 -0.121,-3.089 4.402,-4.526 4.362,-6.558 -0.148,-2.077 -4.453,0.257 -5.09,-4.995 -0.595,-4.609 2.798,-8.121 3.912,-9.394 -0.526,-3.884 1.938,-3.36 1.769,-4.903 -0.577,-5.266 -16.059,-7.513 -1.742,-22.284 1.708,-3.043 -9.544,-4.856 4.755,-18.642 1.875,-3.404 -7.269,-8.478 1.539,-17.701 3.3,-4.175 8.948,-5.772 3.826,-9.927 -2.877,-2.487 -0.844,-9.42 1.664,-14.197 3.213,-5.373 8.448,-7.846 3.119,-16.747 -2.269,-16.219 2.354,-19.291 6.853,-24.284 5.812,-5.716 6.523,-11.925 7.161,-18.142 0.318,-6.366 -1.99,-2.097 -0.619,-22.452 -0.668,-5.612 -1.47,-7.3 -5.11,-11.922 -5.875,-8.51 -2.933,-20.698 0.186,-31.04 2.522,-6.134 1.218,-11.285 -3.192,-19.565 -2.904,-6.163 -3.284,-11.978 -3.443,-17.995 3.125,-4.596 -0.975,-7.512 3.169,-13.417z"/>
     <path id="Rosto" class="fil0" d="M369.963 422.026c-0.237,-1.413 -1.097,-2.237 -1.642,-3.307 -0.611,-1.199 -0.94,-2.623 -1.766,-3.789 -1.627,-2.294 -3.499,-4.26 -4.933,-5.402 -5.448,-3.838 -11.615,-4.547 -18.886,-6.229 -3.576,-2.613 -8.61,-5.142 -12.135,-7.264 -5.592,-3.364 -5.516,-4.533 -15.398,-10.504 -2.576,0.519 -11.556,-6.332 -15.685,-3.609 -3.724,2.587 -4.904,6.228 -5.457,10.247 -1.325,9.625 1.875,16.304 7.907,18.144 5.73,2.58 6.299,1.636 14.661,3.535 6.832,1.552 11.082,3.746 14.643,6.296 4.056,2.906 3.672,2.149 8.49,10.751 -0.253,3.773 1.688,2.855 1.002,7.024 -0.014,1.843 -0.97,0.454 -1.02,3.406 -0.018,1.094 0.344,2.715 0.084,4.13 -0.109,0.59 -0.995,0.382 -0.93,0.994 0.512,4.894 -1.42,3.617 -1.857,5.293 -1.052,4.042 1.192,3.533 1.059,4.673 -1.029,1.43 -2.467,1.81 -3.08,2.802 -0.584,0.948 -0.343,2.508 -1.304,3.972 -1.349,2.254 -4.145,2.983 -6.071,7.364 -6.332,2.937 -3.175,3.253 -6.19,5.073 -6.577,-0.134 -6.917,-3.116 -13.17,-2.492 -2.03,0.231 -5.299,0.02 -7.589,0.083 -1.314,0.036 -1.497,0.788 -2.813,0.664 -0.65,-0.061 -1.37,-0.72 -1.944,-0.749 -0.689,-0.035 -1.217,0.565 -1.803,0.572 -4.327,0.05 -3.569,1.019 -5.385,1.501 -2.344,-1.134 -1.439,-1.999 -2.757,-2.34 -0.784,-0.203 -3.514,0.74 -4.909,0.065 -0.31,-0.059 -0.214,-0.634 -0.599,-0.806 -0.358,-0.158 -1.205,0.091 -1.381,-0.127 -0.357,-0.441 -0.061,-1.016 -0.822,-1.029 -6.765,-0.109 -5.732,-0.883 -6.702,-0.831 -1.919,-0.117 -0.937,0.797 -3.142,0.761 -1.286,-0.021 -2.395,-0.747 -3.658,-0.359 -3.352,1.03 -4.094,2.331 -6.551,3.364 -8,2.984 -11.08,-2.416 -15.543,-5.191 -0.364,-0.875 -1.99,-1.313 -2.216,-2.218 -1.433,-5.763 -3.551,-7.708 -4.222,-11.262 -1.46,-7.737 -3.089,-9.518 -3.97,-13.299 -0.829,-3.558 -0.468,-6.194 -0.201,-8.531 2.725,-5.42 3.998,-6.858 7.437,-11.985 0.98,-1.157 1.895,-2.257 3.857,-3.131 7.895,-3.515 11.503,-7.771 20.647,-7.714 4.846,-0.222 4.014,-0.634 9.307,-2.196 1.08,-1.347 5.529,-2.451 6.24,-5.064 0.683,-2.511 0.994,-0.971 1.301,-2.281 0.504,-2.156 0.276,-4.478 -0.649,-6.05 -1.666,-2.831 -0.008,-3.412 -0.854,-5.346 0.022,-2.822 -1.418,-1.576 -2.23,-3.053 -1.879,-3.417 -3.706,-8.105 -6.9,-7.546 -8.986,2.895 -16.588,5.837 -25.575,8.732 -6.754,3.921 -14.355,6.878 -21.849,12.117 -2.11,3.157 -4.665,5.48 -6.589,8.884 -1.332,2.357 -1.723,5.773 -2.433,7.531 -0.523,1.296 -1.319,2.471 -1.958,3.728 -0.139,-6.077 -2.623,-7.585 -4.223,-13.34 -0.289,-3.59 -2.285,-11.833 -1.945,-15.444 -2.396,-1.49 -2.257,0.055 -3.283,0.357 -5.651,-11.337 -6.246,-13.274 -8.085,-20.982 -2.32,-9.446 -9.498,-13.266 -12.782,-22.377 -2.601,-6.971 -3.385,-15.799 -5.734,-19.241 -2.408,-3.529 -4.169,-15.244 -4.342,-19.054 0.176,-2.41 1.143,-2.965 1.296,-5.307 0.112,-1.707 0.077,-4.231 0.002,-6.881 -0.022,-0.758 -0.764,-1.814 -0.789,-2.577 -0.027,-0.826 0.66,-1.359 0.634,-2.149 -0.077,-2.322 -0.135,-4.441 -0.097,-5.877 0.045,-1.661 1.012,-3.276 0.082,-4.816 -1.037,-1.715 -0.982,-3.123 0.097,-4.66 0.873,-1.244 -1.46,-3.983 -0.902,-5.382 1.186,-2.968 0.908,-5.294 0.693,-8.813 -0.109,-1.782 1.125,-7.193 1.077,-9.522 -0.031,-1.511 1.386,-1.035 1.174,-2.92 -0.127,-1.126 -0.264,-3.805 0.04,-5.32 0.281,-1.402 0.923,-0.142 0.751,-1.4 -0.151,-1.106 0.019,-3.822 0.064,-4.627 1.386,-1.672 0.644,-2.441 1.031,-3.787 0.775,-2.701 2.896,-8.616 3.85,-11.227 0.522,-1.428 -0.229,-0.888 0.274,-2.163 0.195,-0.495 0.433,-0.557 0.638,-1.053 0.275,-0.665 0.089,-1.88 0.379,-2.557 0.535,-1.253 1.4,-3.743 2.018,-4.982 1.303,-2.611 1.095,-5.643 2.162,-8.345 0.794,-2.01 1.506,-2.096 2.385,-5.545 0.416,-0.911 0.885,-1.794 1.278,-2.709 0.407,-0.948 -0.106,-3.032 0.371,-5.301 0.632,-3.007 2.509,-9.274 4.553,-12.065 2.749,-3.75 3.249,-4.464 4.73,-6.338 3.817,-2.742 7.749,-4.849 11.101,-7.337 6.14,-4.557 9.28,-5.023 15.111,-7.751 8.164,-3.82 8.407,-4.624 23.86,-4.909 6.241,0.422 16.3,-2.099 24.398,-1.848 9.276,0.289 16.629,3.346 23.777,3.829 10.435,-1.431 15.574,-1.832 26.605,-3.226 24.222,2.7 27.441,0.052 48.584,14.869 5.274,4.592 16.627,10.847 16.707,18.721 0.013,1.307 0.583,2.794 1.336,3.862 1.246,2.284 2.58,1.315 4.313,4.872 4.641,9.532 3.775,18.762 5,21.249 3.503,12.037 4.126,9.435 6.839,19.145 0.866,3.046 0.651,4.265 1.516,7.311 0.74,2.608 3.371,4.752 4.294,7.669 1.606,5.076 3.146,10.918 3.23,15.789 -0.032,1.222 0.384,2.466 0.353,3.655 -0.029,1.045 -0.507,2.038 -0.533,3.063 -0.216,8.296 -0.358,16.024 -0.006,24.48 -0.227,1.683 -1.201,1.532 -1.383,3.333 -0.087,0.858 1.002,2.819 0.967,3.805 -0.057,1.577 -0.81,1.162 -1.035,2.655 -0.133,0.887 -0.069,1.803 0.144,2.978 0.31,1.713 1.542,2.74 1.208,4.983 -0.163,2.829 -0.867,2.074 -0.898,3.238 -0.033,1.194 0.766,2.635 0.707,3.836 -0.477,9.639 0.35,13.124 0.35,22.608 0.3,10.995 -5.808,22.332 -8.777,30.943 -3.503,9.694 -10.486,18.188 -14.749,28.987 -1.122,-0.168 -1.298,1.872 -1.292,1.228 0.028,-2.649 -2.023,-2.205 -2.925,-0.864 -2.245,3.912 -4.077,7.078 -6.378,10.305 -4.266,5.986 -7.951,8.29 -9.225,14.429 -0.713,-0.216 -1.491,0.405 -1.749,0.223 -0.613,-1.64 -0.632,-5.843 -0.714,-7.728z"/>
     <path id="Orelha_x0020_Direita" class="fil0" d="M165.314 302.95c0.172,-1.719 0.936,-11.212 0.486,-13.084 -1.205,-5.014 -1.534,-8.583 -1.138,-11.29 1.074,-2.381 0.171,-4.774 0.36,-8.287 0.302,-3.981 1.4,-5.587 0.668,-4.992 -1.319,0.945 -0.526,-4.816 -1.461,-6.133 -2.991,-3.275 -5.197,0.035 -6.875,7.78 -1.141,0.93 -1.456,6.662 -0.172,15.166 1.438,1.325 1.506,2.794 1.852,5.159 0.424,2.894 1.609,2.485 2.162,3.877 0.705,1.773 0.707,3.657 1.724,5.134 1.059,2.196 0.881,7.003 2.394,6.67z"/>
     <path id="Orelha_x0020_Esquerda" class="fil0" d="M421.171 309.162c0.012,-0.955 0.385,-1.833 0.419,-2.981 0.052,-1.692 -0.221,-3.746 -0.134,-5.661 0.041,-0.916 0.702,-1.924 0.75,-2.853 0.192,-3.799 -0.193,-7.507 0.014,-10.39 0.238,-3.3 1.618,-4.047 1.662,-7.427 2.434,-9.153 1.636,-10.419 2.461,-13.99 0.241,-1.042 1.394,-1.41 1.798,-2.363 0.43,-1.016 0.147,-2.6 0.331,-3.445 1.387,-2.473 1.22,0.063 2.607,-2.409 1.692,-5.637 15.158,4.672 12.69,17.805 -0.585,1.504 -0.008,3.816 -1.142,4.907 -1.637,1.575 -1.541,4.05 -2.342,5.849 -1.308,2.94 -3.278,4.902 -4.647,8.399 -1.877,1.928 -3.818,6.362 -5.902,8.296 -2.234,2.073 -4.788,3.843 -6.171,5.929 -0.449,0.676 -2.129,1.556 -2.394,0.334z"/>
     <path id="Monocelha" class="fil1" d="M288.778 295.554c1.094,0.3 1.803,-2.655 4.503,-5.316 3.504,-3.407 3.268,-3.715 10.571,-4.499 1.53,0.061 1.482,2.334 5.228,2.395 4.214,-0.287 7.735,-0.865 11.655,-1.649 4.259,-0.991 17.644,-8.61 38.476,-11.37 5.496,-1.529 10.426,-2.419 19.784,0.876 5.066,2.231 10.132,4.463 15.199,6.695 6.213,1.846 6.757,-2.535 6.513,-7.781 -4.325,-14.612 -12.547,-21.81 -25.201,-23.77 -9.616,-0.248 -14.175,4.747 -20.756,7.306 -5.893,1.524 -8.267,3.755 -12.776,3.896 -4.651,0.269 -5.062,1.744 -10.068,-0.046 -5.713,-1.019 -3.851,0.803 -6.9,2.259 -0.892,0.525 -1.284,0.873 -2.282,-0.428 -3.049,-0.499 -4.752,0.503 -7.722,1.624 -17.958,1.243 -14.071,-1.526 -24.27,-0.818 -1.224,0.397 -0.627,1.808 -0.506,3.075 -0.845,-0.362 -1.203,0.28 -2.118,-0.112 -0.603,0.905 0.458,1.422 -0.145,2.327 -0.92,-1.321 -3.904,1.018 -4.616,-2.356 -1.629,0.723 -2.721,-0.514 -4.349,0.209 0.52,0.622 -2.394,1.496 -2.913,-0.378 -0.446,-1.612 -0.942,-0.503 -0.989,-1.954 -0.705,0.409 -1.357,-0.338 -1.471,-0.809 -16.823,0.659 -17.872,-2.571 -28.7,-5.042 -4.767,-0.673 -10.799,-1.989 -22.705,-3.882 -11.799,-1.875 -11.847,-5.164 -16.489,-5.819 -4.761,-0.373 -12.963,-4.333 -20,8.063 -1.017,7.958 1.503,4.673 0.686,9.457 -0.797,5.892 3.718,11.168 8.758,11.265 1.715,-1.12 2.323,-5.384 4.293,-7.21 2.483,-2.301 7.138,-2.516 11.175,-1.356 10.722,2.337 19.49,7.186 29.415,8.765 7.116,0.844 11.08,2.054 18.197,2.899 4.341,0.632 6.292,2.437 9.91,4.307 0.643,0.424 1.737,0.619 2.615,0.277 0.569,-0.222 -0.066,-1.137 1.545,-0.938 2.849,0.332 4.895,1.86 6.343,3.186 1.131,0.687 5.179,-0.637 6.401,0.749 2.78,2.45 2.42,5.736 3.709,5.903z"/>
     <path id="Barba" class="fil1" d="M274.982 444.057c-5.286,1.07 -13.06,0.712 -14.372,3.978 0.482,1.387 1.803,1.546 1.847,3.336 2.803,3.173 5.604,6.347 8.406,9.52 0.915,0.4 1.83,0.801 2.745,1.201 0.658,0.686 0.906,0.946 1.563,1.632 0.026,0.974 1.629,2.63 3.879,3.531 0.083,0.854 0.695,2.178 1.848,2.642 1.087,0.029 1.517,-0.161 2.604,-0.132 0.543,0.114 1.669,0.009 1.556,0.816 0.897,0.476 1.822,0.329 2.354,-0.58 0.658,0.286 2.527,-0.771 2.493,0.754 5.345,0.209 5.878,0.563 5.914,-1.106 0.157,-2.005 0.811,-2.01 2.937,-4.051 0.028,-1.201 0.074,-1.713 0.65,-2.622 0.407,-1.099 2.095,-1.32 2.868,-1.434 2.637,-2.939 5.27,-6.273 8.114,-9.2 0.393,-0.404 1.102,-0.081 1.467,-0.487 -0.057,-2.001 1.039,-0.677 0.981,-2.679 -0.209,-1.754 -1.905,-2.953 -3.999,-4.208 -5.634,-0.094 -13.326,-0.116 -18.186,-0.202 -4.203,-0.028 -4.135,0.276 -8.338,0.247 -3.891,0.326 -5.325,-1.004 -7.331,-0.956z"/>
    </g>
   </g>
  </g>
  <path class="fil2 str0" d="M300 0c165.685,0 300,134.315 300,300 0,165.685 -134.315,300 -300,300 -165.685,0 -300,-134.315 -300,-300 0,-165.685 134.315,-300 300,-300z"/>
  <circle id="Pontilhado_x0020_Preto" class="fil2 str1" cx="300" cy="300" r="286.787"/>
  <path id="Pontilhado_x0020_Branco" class="fil2 str2" d="M136.997 536.757c-19.81,-13.627 -37.826,-29.69 -53.628,-47.812"/>
  <path id="Pontilhado_x0020_Branco_0" class="fil2 str2" d="M194.136 567.191c-15.694,-6.201 -30.81,-13.775 -45.172,-22.634"/>
  <path id="Pontilhado_x0020_Branco_1" class="fil2 str2" d="M529.732 471.507c-32.833,44.192 -77.693,77.999 -129.221,97.385"/>
 </g>
</svg>
