<?xml version="1.0" standalone="no"?> <!DOCTYPE svg PUBLIC "-//W3C//DTD SVG 1.0//EN" "http://www.w3.org/TR/2001/REC-SVG-20010904/DTD/svg10.dtd" > <svg xmlns="http://www.w3.org/2000/svg" width="100%" height="100%">
<defs >
<font horiz-adv-x="1171" ><font-face
    font-family="Typo Slab"
    units-per-em="2048"
    panose-1="2 0 5 0 0 0 0 9 0 0"
    ascent="1853"
    descent="-468"
    alphabetic="0" />
<missing-glyph horiz-adv-x="200" />
<glyph unicode=" " glyph-name="space" horiz-adv-x="565" />
<glyph unicode="!" glyph-name="exclam" horiz-adv-x="486" d="M225 332L301 947L401 1418H687L587 947L406 332H225ZM107 0L164 269H435L378 0H107Z" />
<glyph unicode="&quot;" glyph-name="quotedbl" horiz-adv-x="879" d="M749 864L742 1090L812 1419H1081L1010 1089L914 864H749ZM339 864L332 1090L402 1419H671L600 1089L504 864H339Z" />
<glyph unicode="#" glyph-name="numbersign" horiz-adv-x="1346" d="M894 596L991 819H748L652 596H894ZM435 596L531 819H274L320 1034H620L779 1418H997L838 1034H1081L1240 1418H1458L1299 1034H1466L1420 819H1209L1112 596H1373L1327 383H1022L863 0H646L804
383H562L403 0H186L344 383H181L227 596H435Z" />
<glyph unicode="$" glyph-name="dollar" horiz-adv-x="1305" d="M795 1597H1138L1095 1393Q1116 1393 1198 1353Q1220 1338 1230 1330L1243 1393H1464L1370 948L1119 929L1126 960Q1142 1034 1102 1107Q1048 1180 900 1180Q720 1180 649 1095Q621 1064 615 1034L613
1025Q595 942 698 910Q783 877 954 840Q1081 806 1158 763Q1194 738 1221 715Q1271 662 1287 622Q1318 532 1302 456L1288 392Q1267 291 1164 183Q1094 121 1067 107Q1014 70 923 36Q884 22 800 6L764 -166H421L461 25Q416 37 365 64Q364 65 337 82L324 19H104L209
514L448 534Q444 429 454 393Q501 235 732 235Q897 235 1000 324Q1036 363 1045 404L1047 416Q1070 524 897 573Q854 588 659 637Q544 671 479 711Q443 738 411 773Q333 877 361 1008L366 1031Q394 1160 526 1279Q617 1350 711 1379Q751 1389 752 1392L795 1597ZM946
1594L908 1414H947L985 1594H946ZM607 -1L572 -163H611L646 -1H607Z" />
<glyph unicode="%" glyph-name="percent" horiz-adv-x="1556" d="M596 1204T572 1157Q557 1130 536 1032Q518 945 522 915Q528 873 575 873Q626 873 649 919Q665 949 685 1044Q704 1133 701 1162Q695 1204 645 1204Q596 1204 572 1157ZM934 1196T901 1039Q868
884 784 786Q680 663 528 663Q373 663 325 792Q289 890 323 1048Q355 1198 436 1295Q538 1413 685 1413Q840 1413 893 1293Q934 1196 901 1039ZM282 0L1316 1413H1554L524 0H282ZM1231 541T1206 494Q1191 466 1170 369Q1152 282 1157 251Q1162 210 1210 210Q1261
210 1284 256Q1301 285 1321 381Q1339 468 1335 499Q1330 541 1281 541Q1231 541 1206 494ZM958 385Q990 536 1071 631Q1173 750 1320 750Q1476 750 1529 629Q1569 532 1536 375Q1503 222 1420 122Q1315 0 1162 0Q1007 0 960 129Q924 225 958 385Z" />
<glyph unicode="&amp;" glyph-name="ampersand" horiz-adv-x="1394" d="M471 526T447 412Q428 326 477 262Q524 196 608 196Q690 196 772 225Q842 249 885 286L672 640Q471 526 447 412ZM915 1017T933 1103Q944 1152 920 1184Q895 1216 846 1216Q798 1216 760
1186Q721 1156 711 1109Q697 1045 765 931Q915 1017 933 1103ZM497 893T488 915Q438 1011 456 1095Q487 1244 625 1342Q754 1433 901 1433Q1043 1433 1127 1345Q1214 1251 1184 1108Q1140 901 884 762Q915 708 980 599Q1045 489 1067 450Q1086 469 1113 519H1044L1083
700H1443L1405 520H1331Q1277 400 1171 286L1229 201L1064 -10L988 113Q805 -30 558 -30Q370 -30 260 89Q145 214 185 402Q239 654 555 809Q497 893 488 915Z" />
<glyph unicode="&apos;" glyph-name="quotesingle" horiz-adv-x="469" d="M339 864L332 1090L402 1419H671L600 1089L504 864H339Z" />
<glyph unicode="(" glyph-name="parenleft" horiz-adv-x="745" d="M382 42T536 -360L557 -414H346L339 -400Q105 22 207 504Q304 961 723 1405L737 1419H945L904 1367Q572 934 470 504Q382 42 536 -360Z" />
<glyph unicode=")" glyph-name="parenright" horiz-adv-x="745" d="M489 504Q571 934 423 1367L404 1419H612L620 1405Q849 961 752 504Q650 22 236 -400L223 -414H12L55 -360Q381 42 489 504Z" />
<glyph unicode="*" glyph-name="asterisk" horiz-adv-x="907" d="M978 1279L1014 1291L1038 1085L996 1070L845 1033L912 911L931 877L729 751L710 784L646 909L534 786L531 782L504 749L352 877L386 911L503 1033L372 1069L329 1076L443 1291L480 1277L604 1232L647
1417H862L854 1377L825 1232L978 1279Z" />
<glyph unicode="+" glyph-name="plus" horiz-adv-x="1120" d="M564 573H222L272 809H614L687 1151H924L851 809H1192L1142 573H801L728 230H491L564 573Z" />
<glyph unicode="," glyph-name="comma" horiz-adv-x="470" d="M102 0L159 270H427L379 42Q366 -17 332 -79Q286 -162 227 -182L221 -184H61L110 -129Q151 -82 172 0H102Z" />
<glyph unicode="-" glyph-name="hyphen" horiz-adv-x="786" d="M143 200L195 448H781L729 200H143Z" />
<glyph unicode="." glyph-name="period" horiz-adv-x="1547" d="M100 -82V1628H1435V-82H100ZM165 -22H1369V1568H165V-22ZM262 1374H290Q320 1374 332 1321Q334 1298 334 1286V1282H311V1284Q306 1318 291 1318H259Q247 1318 240 1290Q246 1262 256 1262Q256
1259 270 1259H294Q322 1259 340 1204Q344 1183 344 1154Q344 1078 305 1055Q296 1052 291 1052H271Q236 1052 222 1112V1166H239Q239 1139 255 1116Q264 1108 270 1108H293Q301 1108 312 1124Q322 1143 322 1154V1157Q315 1203 291 1203Q291 1204 284 1204H261Q231
1204 222 1248V1329Q232 1374 262 1374ZM378 1374H400V1289H420V1233H400V1069Q400 1029 419 1017Q423 1016 428 1016V961H423Q389 961 379 1029Q378 1035 378 1048V1233H360V1289H378V1374ZM651 1374H672V1052H651V1059Q640 1052 634 1052H610Q574 1052 569 1116V1227Q569
1267 599 1288L607 1289H630Q643 1289 651 1281V1374ZM699 1374H721V1318H699V1374ZM865 1374H1003V1318H944V1052H922V1318H865V1374ZM797 1290H803Q831 1290 839 1269Q852 1252 852 1216V1127Q852 1071 822 1055Q818 1052 813 1052H789Q754 1052 748 1118V1224Q748
1268 777 1288Q786 1290 797 1290ZM1290 1290H1296Q1324 1290 1332 1269Q1340 1260 1340 1250V1093Q1329 1052 1305 1052H1282Q1247 1052 1240 1116V1224Q1240 1268 1270 1288Q1279 1290 1290 1290ZM443 1289H466V1140Q466 1114 484 1108H508Q523 1108 526 1146V1289H548V1052H526V1059Q516
1052 508 1052H485Q453 1052 443 1108V1289ZM699 1289H721V1052H699V1289ZM990 1289H1012V1149Q1012 1107 1035 1107H1051Q1070 1107 1074 1139V1289H1096V1036Q1094 970 1059 961H990V1017H1047Q1074 1017 1074 1052V1058Q1065 1050 1045 1050H1041Q1010 1050
1001 1073Q990 1088 990 1140V1289ZM1117 1289H1138V1282Q1147 1289 1155 1289H1178Q1214 1289 1220 1221V1134Q1220 1074 1192 1058Q1187 1055 1175 1055H1162Q1147 1055 1138 1061V967H1117V1289ZM769 1201V1140Q769 1115 788 1108H812Q830 1114 830 1142V1199Q830
1234 805 1234H791Q780 1234 775 1224Q769 1214 769 1201ZM1138 1140Q1138 1113 1160 1110H1173Q1190 1110 1196 1127Q1197 1137 1197 1142V1201Q1195 1234 1178 1234H1160Q1142 1234 1138 1205V1140ZM1262 1201V1140Q1262 1115 1281 1108H1305Q1323 1114 1323
1142V1199Q1323 1234 1298 1234H1284Q1272 1234 1268 1224Q1262 1214 1262 1201ZM590 1201V1139Q594 1108 609 1108H633Q650 1108 651 1150V1187Q651 1222 637 1231L631 1233H609Q590 1227 590 1201ZM471 1026H479V1008H485Q495 1008 495 993V960H487V990Q487 996
484 997H482Q479 997 479 988V960H471V1026ZM781 1026H789V1008H795Q805 1008 805 987V960H796V996L791 997L789 993V960H781V1026ZM916 1026H924V1008H929V997H924V981Q924 973 930 973V960H929Q919 960 916 978V997H913V1008H916V1026ZM450 1008H461Q464 1008
466 998V995L458 993Q458 997 456 997H455Q453 997 452 993V979V973H456Q458 973 458 978L466 975V972Q465 960 456 960Q443 961 443 973V995Q443 1004 450 1008ZM508 1008H514Q525 1008 525 984Q525 960 511 960Q501 962 501 975V996Q501 1005 508 1008ZM537 1008H546Q554
1004 554 995V973Q554 961 541 960Q529 960 529 980V990Q529 1005 537 1008ZM564 1008H574Q578 1003 578 991H575Q580 984 580 976Q579 960 569 960Q558 962 558 975V981H564V982Q558 983 558 991V997Q558 1006 564 1008ZM590 1008H601Q607 1004 607 997V982H593V975Q593
973 595 973H598L599 979H607V975Q607 960 595 960Q584 960 584 986V987Q584 1004 590 1008ZM628 1008H636V984L637 973H643L645 979V1008H652V957Q652 947 645 943H636Q630 943 630 963H633Q628 968 628 981V1008ZM665 1008H675Q683 1005 683 990V980Q683 960
671 960Q658 961 658 973V995Q658 1004 665 1008ZM687 1008H696V975Q697 973 698 973H702L703 979V1008H711V960H701Q687 960 687 984V1008ZM716 1008H733V997Q725 997 725 990V960H716V1008ZM759 1008H769Q777 1005 777 996Q772 993 768 993Q768 997 765 997H763Q762
997 762 995V975Q762 973 763 973H768V978H771Q777 975 777 972Q777 961 763 960Q752 960 752 986V987Q752 1004 759 1008ZM815 1008H824Q832 1008 832 986V976Q834 968 834 967L832 959H829Q827 959 827 961Q823 959 820 959H818Q809 964 809 976Q809 985 813
990V991H810V997Q810 1006 815 1008ZM837 1008H853V997Q845 997 845 989V960H837V1008ZM863 1008H874Q880 1006 880 993V976Q880 972 883 970Q881 959 879 959H876Q876 961 875 961Q871 959 868 959Q859 959 858 973V980Q858 987 862 991H858V996Q860 1008 863
1008ZM892 1008H903Q909 1005 909 996Q905 993 901 993Q901 997 898 997H897Q895 997 895 995V975Q895 973 897 973H900Q901 973 901 978H904Q909 975 909 972Q909 960 897 960Q886 960 886 987Q886 1004 892 1008ZM942 1008H948Q958 1008 958 996V982H943V975Q943
973 945 973H947Q950 973 950 979H959Q959 960 945 960Q935 962 935 975V996Q935 1005 942 1008ZM964 1008H980V997Q971 997 971 989V960H964V1008ZM511 997L508 993V975Q509 973 511 973H513Q516 973 516 975V996L511 997ZM537 988V982Q537 974 541 973H545L546
979V993Q546 995 542 997H541Q537 997 537 988ZM566 997V993H570V997H566ZM593 995H598Q598 997 596 997H595Q593 997 593 995ZM666 993V979L667 973H671Q674 974 674 982V988Q674 997 671 997H669Q668 997 666 993ZM818 995V993H822V997H820Q818 997 818 995ZM866
995V993H871V997H868Q866 997 866 995ZM945 997L944 995H950V996L945 997ZM566 981V975Q566 973 569 973H571Q571 976 572 976Q571 979 571 981H566ZM818 979V975Q818 972 820 972Q822 972 822 975V981H820Q818 981 818 979ZM866 979V978L867 972H868Q871 973 871
981H868Q866 981 866 979ZM637 960V957Q638 955 640 955V955Q642 955 645 958V960H637ZM725 791H728L739 790V772Q741 702 741 646L734 644H728Q725 715 725 782V785V791ZM1224 791H1225L1239 790Q1238 781 1238 777Q1238 722 1241 646L1230 644H1226Q1224 702
1223 773Q1224 785 1224 791ZM790 786H794Q794 784 801 774Q797 756 797 744V726Q797 682 812 668H813Q834 668 848 785H850Q862 781 863 781Q857 723 857 695Q857 664 869 664Q871 648 871 644H863Q850 644 843 676H842Q831 648 815 648H810Q790 648 783 709Q782
713 782 731V742Q782 767 790 786ZM1094 786H1100Q1112 786 1128 758Q1140 736 1140 714V705Q1140 668 1100 647Q1093 644 1086 644H1079Q1049 644 1044 687V696Q1044 746 1084 784Q1092 786 1094 786ZM249 782H258Q286 777 286 742Q286 708 253 693Q241 688 226
686V649H225Q220 649 211 652V686H206L201 687Q201 698 206 706H211V706Q211 747 205 747Q199 754 199 758Q217 782 249 782ZM1059 696V688Q1059 667 1084 664Q1106 664 1121 691Q1126 699 1126 709V712Q1126 739 1100 765Q1097 765 1097 767Q1080 767 1062 717Q1059
706 1059 696ZM224 755Q225 720 225 708Q226 708 226 706Q255 712 263 723Q271 733 271 741Q271 759 256 762H250Q224 759 224 755ZM404 758Q423 758 432 709Q431 709 417 705Q411 738 404 738Q387 729 384 663Q385 649 385 648Q375 646 370 646Q357 715 357 733Q369
735 372 735V734Q372 730 375 715H376Q386 758 404 758ZM537 752Q557 752 570 720Q572 711 572 703V700Q572 664 537 647Q532 646 528 646Q501 650 501 684Q501 734 526 749Q528 750 537 752ZM614 752Q633 752 650 663Q651 663 651 656Q643 649 639 649Q624 711
616 729Q607 716 598 659Q597 659 593 649H586Q579 649 577 706Q575 720 575 729Q582 731 589 731Q592 714 592 711H593Q600 752 614 752ZM1185 752Q1201 752 1220 656Q1211 649 1207 649Q1192 715 1183 729Q1177 717 1164 655Q1161 649 1160 649H1154Q1147 649
1144 729Q1150 731 1159 731Q1160 712 1160 709H1161Q1168 752 1185 752ZM472 750Q490 745 490 733V732Q490 730 480 724H479Q475 731 466 731Q453 731 450 720Q450 715 479 714Q499 703 499 680Q499 655 479 646L471 644H466Q442 644 432 667V668Q433 671 441
679H442Q454 664 470 664Q484 668 484 680Q480 695 463 695Q435 695 435 717V720Q435 750 472 750ZM912 750Q925 750 932 732V731Q921 724 918 724Q918 730 907 731Q895 731 890 721V720Q890 715 919 714Q938 705 938 678Q938 652 914 644H906Q883 644 871 667V668Q879
679 881 679H882Q894 664 909 664Q923 668 923 680Q923 692 907 695Q882 695 877 706Q875 717 875 720Q875 750 912 750ZM1249 749V749Q1262 747 1263 747Q1262 729 1262 721V712Q1264 677 1275 677H1276Q1294 690 1294 744V744H1309V741Q1316 663 1316 653Q1316
607 1286 597Q1284 597 1281 597H1276Q1258 597 1253 616Q1252 621 1252 626V626Q1252 641 1255 641H1256Q1265 635 1268 635L1267 626Q1267 618 1276 617H1278Q1301 617 1301 659Q1301 664 1300 680H1299Q1291 656 1273 656H1272Q1253 656 1247 703V720Q1247 730
1249 749ZM331 748Q354 744 354 726V720Q354 700 315 684H305Q305 673 322 668Q333 668 343 686H347Q355 674 355 671Q338 649 325 649H318Q292 649 288 694Q288 734 320 747L331 748ZM681 748H692Q719 739 719 703Q718 682 718 668Q718 668 720 652Q711 644 707
644H706L704 655Q692 647 681 647H674Q652 650 652 668V676Q652 706 684 711Q695 710 704 705V706Q700 731 687 731Q678 731 669 721H666Q664 722 658 732V734Q670 748 681 748ZM983 748Q1007 744 1007 725Q1007 696 965 684H958V682Q965 668 974 668Q984 668 997
686H998Q999 686 1007 674Q1007 665 986 652Q982 649 977 649H970Q946 649 941 693Q941 733 971 747L983 748ZM516 685Q518 667 528 667H531Q555 674 557 702V705Q551 731 537 731H535Q522 731 517 699Q516 692 516 685ZM305 705Q324 705 338 723V725Q331 727 329
727Q313 727 305 708V705ZM958 705H961Q978 705 992 724Q986 727 983 727H980Q964 727 958 706V705ZM667 674V671Q667 668 677 665Q694 665 702 682Q694 689 683 689Q667 686 667 674ZM618 544Q631 544 633 510V507L627 506H625Q622 527 617 527Q611 527 609 508Q610
506 610 504Q610 494 612 465Q617 468 621 468H624V453L613 450Q618 393 618 381H607Q603 435 603 446H602Q597 444 592 444V461Q598 461 602 463Q599 484 599 515Q602 544 616 544H618ZM816 544Q828 544 832 507L824 506H822V507Q822 522 815 527Q807 522 807
512Q807 504 810 466Q810 466 810 465Q815 468 820 468H821L822 460V453Q821 453 810 450L812 447Q812 435 816 381H805Q805 387 801 446Q792 444 789 444V461L800 462Q797 508 797 514Q797 544 816 544ZM709 527H713H719V518Q719 457 722 386H711Q709 451 709
488V527ZM735 527H736H744V497Q744 465 747 386H736Q733 452 733 522V525Q733 527 735 527ZM529 524Q537 522 539 522Q537 493 537 480H539L551 482V465Q550 465 537 463L541 389L539 387H531Q528 416 526 462H513V478L524 479H526V497Q526 524 529 524ZM994 524Q997
524 1006 522Q1003 509 1003 493V480H1006L1018 482V465H1015L1003 463L1008 389L1003 387H997Q994 449 994 462H979L980 470V478L991 479H992V480Q992 501 994 524ZM1140 524Q1143 524 1152 522Q1150 504 1150 488V480H1152L1164 482V474V465Q1163 465 1150 463V457Q1150
442 1154 389L1152 387H1143L1139 462H1126V478L1137 479H1138L1140 524ZM404 521H414Q428 521 437 498Q431 492 431 489H428Q419 504 407 504Q390 504 372 478Q363 459 363 444V439Q363 410 387 404Q389 403 395 403Q426 406 426 423V433Q422 436 414 436H404V453Q432
453 437 444Q439 437 439 435Q437 410 437 406Q437 395 441 380Q440 380 433 375H432Q428 375 426 397Q420 389 397 385H395Q357 385 352 436V440Q352 498 397 519L404 521ZM866 489Q889 489 900 451V437Q900 403 866 387L859 386Q843 386 835 406Q833 417 833
423V427Q833 468 852 484Q860 489 866 489ZM943 489Q958 489 977 395H976Q971 391 967 391Q952 458 943 470Q936 463 920 391L918 390H914Q908 390 905 466L913 468H915Q918 452 918 435H919Q928 489 943 489ZM487 485Q507 481 507 465Q508 465 508 463Q508 440
473 427Q468 424 458 424V423Q458 412 475 406H476Q486 406 499 422H502Q502 420 508 413V412Q494 390 479 390H473Q454 390 446 422V437Q446 470 472 483Q477 485 487 485ZM1083 485H1094Q1110 485 1118 457Q1120 441 1121 439Q1120 433 1118 413Q1120 409 1120
390L1114 386H1111L1108 398Q1098 387 1083 387H1079Q1058 390 1058 407V415Q1061 447 1088 447Q1100 447 1109 439V442Q1109 467 1091 471H1088Q1082 471 1071 463H1070Q1069 463 1064 470V472Q1074 485 1083 485ZM634 483Q636 483 645 480Q645 406 659 406Q678
418 687 472Q688 477 688 483H689Q692 483 699 480Q696 456 696 435V423Q696 414 701 404Q696 397 696 393H694Q687 397 686 419H684Q680 404 665 390H656Q636 390 636 465V475L634 483ZM843 427Q845 404 858 404H859Q875 404 886 429Q889 437 889 440Q883 471
867 471H863Q848 471 843 427ZM457 440Q480 440 496 462Q494 468 485 468H482Q463 468 457 440ZM1068 412Q1071 404 1079 404H1085Q1099 404 1107 422Q1098 430 1090 430H1088Q1068 427 1068 412ZM507 295Q508 295 524 291Q520 253 519 199Q519 165 529 130Q518
120 517 120H516Q513 120 510 133H508Q508 125 487 117Q454 117 440 159Q437 171 437 187Q437 235 471 245H475Q489 245 504 229V230Q504 238 507 295ZM316 289L331 284Q329 261 329 248V234Q342 237 344 237Q346 217 346 213H344Q335 212 329 212Q332 149 334
121Q322 119 317 119V120Q312 181 312 208L310 210H296V234H311V243Q311 289 316 289ZM674 289H675L690 284Q688 256 688 239V234Q702 237 704 237L705 223V213Q689 212 689 211Q689 188 694 121Q681 119 677 119V120Q672 195 672 210H654V234H671Q671 268 674
289ZM546 286Q555 286 557 272V271Q557 260 549 255H542Q534 260 534 272Q536 286 546 286ZM607 245Q632 245 648 207Q650 196 650 190V181Q650 141 611 121Q607 119 598 119Q571 119 566 160V174Q566 225 596 243Q606 245 607 245ZM800 245H805Q816 245 816 242V240Q825
245 835 245Q860 245 868 201Q868 190 869 187Q866 135 838 123L830 122H820L821 114Q821 108 822 74H805Q800 206 800 245ZM915 245Q938 245 954 210Q958 197 958 186Q958 143 920 121Q912 119 906 119Q884 119 875 146Q873 158 873 169Q873 223 903 243Q914 245
915 245ZM1117 245Q1141 245 1156 210Q1160 202 1160 191V183Q1160 140 1121 121Q1117 119 1108 119Q1080 119 1076 160V174Q1076 225 1106 243Q1116 245 1117 245ZM1211 245Q1228 245 1238 187H1239Q1247 245 1266 245H1267Q1291 245 1307 127H1305Q1294 122 1292
122H1291Q1272 220 1266 220Q1256 198 1249 138Q1246 128 1239 128Q1231 128 1228 143Q1215 219 1209 219Q1193 161 1193 126Q1183 122 1176 122V123L1164 227Q1177 233 1181 233Q1183 225 1185 202H1187Q1196 245 1211 245ZM258 244Q282 239 282 223V222Q281 220
270 213H267Q267 220 254 221H253Q240 221 233 211V207Q233 201 264 201Q291 189 291 163V158Q291 130 269 120Q264 117 259 117H250Q227 117 211 142Q211 147 222 158H225Q233 140 255 140Q273 140 273 160Q273 175 252 178Q225 178 220 190Q216 198 216 202V210Q216
244 258 244ZM713 243Q725 239 728 239Q727 216 727 205V199Q727 166 739 155H744Q766 173 766 227V237H783V236Q791 147 791 133V123Q791 79 763 63Q753 59 747 59Q725 59 718 79Q716 83 716 88V97Q716 112 720 112L734 105L733 97V93Q733 85 744 83H748Q768 83
773 116Q774 120 774 128V148L773 161H772Q762 131 743 131H741Q718 131 711 181Q710 189 710 201V210Q710 243 713 243ZM1033 242H1041Q1047 242 1056 233Q1067 221 1067 215Q1056 202 1055 202V202Q1044 217 1037 217H1035Q1023 212 1017 189L1013 168Q1013 146
1027 144H1030Q1041 144 1064 160H1065Q1071 140 1071 138Q1046 120 1024 120Q1001 120 996 166Q996 200 1015 230Q1027 242 1033 242ZM537 240H549L555 239Q555 236 554 231Q555 164 558 122H540L539 130Q537 198 537 240ZM350 239Q367 234 367 233V213Q367 146
379 146H384Q401 165 408 201Q413 211 414 239H416Q431 237 431 233Q428 191 428 174V164Q428 154 433 144Q433 138 423 126V126Q411 138 411 151H410Q399 122 382 122H379Q350 122 350 215V239ZM454 183Q454 149 484 143H487Q499 143 502 169V172Q502 208 481
220L475 221H473Q456 221 454 186V183ZM583 168Q583 146 598 143H602Q617 143 631 172Q633 176 633 181V190Q626 221 609 221H607Q586 221 583 168ZM816 213Q816 210 819 146L826 145Q848 145 852 187Q849 221 835 221H834Q824 221 816 213ZM890 168V163Q890 146
905 143H907Q923 143 937 169Q941 177 941 187Q935 221 913 221Q894 221 890 168ZM1092 168Q1092 143 1109 143H1112Q1126 143 1141 173Q1143 179 1143 183V190Q1135 221 1118 221H1117Q1097 221 1092 168ZM977 154Q986 154 989 140V135Q986 122 977 122Q968 122
966 137Q967 154 977 154Z" />
<glyph unicode="/" glyph-name="slash" horiz-adv-x="804" d="M90 -45L788 1418H1005L308 -45H90Z" />
<glyph unicode="0" glyph-name="zero" horiz-adv-x="1174" d="M535 200T628 200Q720 201 803 291Q906 403 970 705Q1034 1007 979 1119Q937 1204 846 1210H832Q748 1210 677 1132Q568 1012 500 711L495 685Q435 403 490 290Q535 200 628 200ZM478 1255T602 1341Q713
1417 854 1428Q872 1429 891 1429Q1004 1429 1086 1380Q1165 1333 1206 1242Q1244 1153 1249 1031Q1257 862 1222 697Q1180 500 1077 312Q991 156 869 69Q740 -20 591 -20Q564 -20 534 -17Q355 3 278 136Q185 296 232 606Q240 659 251 709Q296 924 393 1099Q478
1255 602 1341Z" />
<glyph unicode="1" glyph-name="one" horiz-adv-x="808" d="M542 999Q458 945 342 892L284 866L339 1123L358 1133Q587 1254 692 1404L706 1424H879L624 226H756L708 0H201L249 226H378L542 999Z" />
<glyph unicode="2" glyph-name="two" horiz-adv-x="1166" d="M890 240L912 344H1139L1066 0H100L110 47Q124 114 158 170Q265 355 530 539Q838 754 923 843Q1011 936 1028 1016Q1046 1100 996 1153Q946 1206 858 1206Q761 1206 689 1148Q620 1092 594 995L585
961H331L344 1000Q404 1200 558 1313Q707 1424 909 1424Q1098 1424 1203 1317Q1319 1201 1279 1012Q1241 835 1052 664Q979 597 735 427Q585 323 500 240H890Z" />
<glyph unicode="3" glyph-name="three" horiz-adv-x="1160" d="M1106 745T1138 674Q1182 575 1155 446Q1111 242 943 116Q790 2 603 -9Q586 -10 568 -10Q404 -10 297 81Q166 192 188 397L193 436H440L441 409Q445 305 509 252Q559 209 631 209Q641 209 652 210Q735
217 802 273Q876 338 898 442Q924 564 844 621Q792 658 719 658Q678 658 633 647L586 637L636 871L673 868Q693 867 708 867Q786 867 858 907Q948 957 968 1048Q985 1131 945 1176Q910 1213 847 1213H838Q766 1211 699 1167Q626 1118 592 1040L580 1012H329L345
1054Q414 1230 579 1335Q728 1428 893 1429H897Q1061 1429 1153 1334Q1256 1228 1217 1045Q1183 886 1046 784Q1106 745 1138 674Z" />
<glyph unicode="4" glyph-name="four" horiz-adv-x="1207" d="M797 455L837 645H1083L1043 455H1204L1156 231H995L946 0H700L749 231H149L192 435L918 1418H1213L501 455H797Z" />
<glyph unicode="5" glyph-name="five" horiz-adv-x="1150" d="M655 1184L572 944Q683 991 804 991Q1001 991 1104 851Q1202 715 1160 517Q1114 300 945 153Q769 0 552 0Q366 0 268 109Q169 218 190 406L195 446H450L449 417Q448 302 509 251Q546 221 598 221Q620
221 645 226Q730 244 799 315Q877 393 900 502Q926 626 874 695Q821 763 720 763H704Q591 759 507 682L493 669H249L503 1423H1245L1195 1184H655Z" />
<glyph unicode="6" glyph-name="six" horiz-adv-x="1165" d="M449 366T494 283Q542 198 644 198Q742 198 819 281Q890 358 913 468Q937 577 895 649Q851 725 750 725Q650 725 572 652Q495 582 472 477Q449 366 494 283ZM557 876T614 902Q721 952 830 952Q1010
952 1109 809Q1207 670 1167 478Q1123 273 969 131Q806 -20 601 -20Q327 -20 245 209Q182 387 242 669Q328 1071 519 1258Q692 1427 923 1427Q1090 1427 1174 1327Q1257 1231 1243 1063L1239 1023H994L993 1049Q989 1132 963 1168Q935 1210 868 1210Q721 1210 609
1043Q549 953 509 839Q557 876 614 902Z" />
<glyph unicode="7" glyph-name="seven" horiz-adv-x="1125" d="M576 1175L546 1037H320L401 1418H1326L1285 1223L1267 1215Q1009 986 823 669Q642 361 567 36L558 0H306L317 39Q519 750 936 1175H576Z" />
<glyph unicode="8" glyph-name="eight" horiz-adv-x="1118" d="M420 326T464 262Q507 198 603 198Q699 198 768 260Q836 321 858 424Q880 528 837 592Q792 656 695 656Q601 656 532 593Q464 530 442 429Q420 326 464 262ZM609 965T641 919Q671 872 745 872Q815
872 867 917Q917 961 934 1038Q950 1115 918 1162Q886 1210 816 1210Q747 1210 695 1165Q642 1120 626 1046Q609 965 641 919ZM337 861T375 1040Q413 1217 553 1325Q687 1427 860 1427Q1034 1427 1125 1322Q1222 1213 1184 1037Q1148 866 1000 772Q1060 728 1092
657Q1136 556 1109 426Q1066 226 907 101Q753 -20 556 -20Q356 -20 253 103Q148 228 191 430Q221 568 313 664Q380 733 470 773Q337 861 375 1040Z" />
<glyph unicode="9" glyph-name="nine" horiz-adv-x="1139" d="M999 1058T968 1130Q933 1209 838 1209Q736 1209 653 1123Q572 1040 548 929Q526 825 573 755Q621 683 721 683Q822 683 888 757Q950 826 974 942Q999 1058 968 1130ZM806 455T634 455Q438 455 344
602Q257 738 299 934Q343 1141 497 1280Q657 1427 865 1427Q1131 1427 1203 1196Q1257 1025 1196 739Q1035 -20 537 -20Q367 -20 276 80Q184 179 199 346V351L200 393H444V365Q443 198 587 198Q729 198 833 350Q894 439 929 550Q806 455 634 455Z" />
<glyph unicode=":" glyph-name="colon" horiz-adv-x="469" d="M100 0L157 269H426L369 0H100ZM255 730L312 999H581L524 730H255Z" />
<glyph unicode=";" glyph-name="semicolon" horiz-adv-x="470" d="M102 0L159 270H427L379 42Q366 -17 332 -79Q286 -162 227 -182L221 -184H61L110 -129Q151 -82 172 0H102ZM255 730L312 999H581L524 730H255Z" />
<glyph unicode="&lt;" glyph-name="less" horiz-adv-x="1057" d="M1047 424L993 170L230 611L273 815L1223 1252L1169 997L566 712L1047 424Z" />
<glyph unicode="=" glyph-name="equal" horiz-adv-x="1165" d="M1236 806H271L321 1041H1286L1236 806ZM1150 400H185L235 636H1200L1150 400Z" />
<glyph unicode="&gt;" glyph-name="greater" horiz-adv-x="1057" d="M793 712L312 997L366 1252L1130 815L1087 611L136 170L190 424L793 712Z" />
<glyph unicode="?" glyph-name="question" horiz-adv-x="1105" d="M718 751T775 795Q840 848 863 868Q956 949 972 1024Q990 1112 946 1168Q903 1224 820 1224Q732 1224 672 1168Q621 1119 576 1016L564 988H310L325 1028Q393 1220 528 1328Q671 1441 862 1441Q1048
1441 1151 1338Q1265 1224 1225 1036Q1194 887 1058 761Q1032 738 942 665Q872 607 833 565Q782 511 748 364L740 329H502L508 364Q516 406 519 420Q557 597 684 720Q718 751 775 795ZM421 0L478 269H746L689 0H421Z" />
<glyph unicode="@" glyph-name="at" horiz-adv-x="1995" d="M994 233T1081 302Q1163 365 1215 458Q1264 544 1282 629Q1300 717 1270 770Q1238 826 1154 826Q1066 826 981 755Q908 692 856 594Q817 518 802 447Q792 401 793 357Q795 233 907 233Q994 233 1081
302ZM1412 348H1410Q1403 332 1401 328Q1384 293 1378 271Q1376 267 1375 262Q1370 238 1391 238Q1565 238 1673 384Q1741 476 1766 592Q1779 656 1780 724Q1781 894 1703 1018L1412 348ZM1702 1018Q1686 1044 1665 1068Q1536 1224 1301 1224Q1101 1224 909 1119Q727
1019 592 849Q460 679 416 491L413 476Q372 284 438 116Q497 -37 670 -113Q820 -179 1027 -179Q1366 -179 1597 -6L1609 3H1896L1843 -53Q1681 -226 1434 -317Q1217 -396 984 -396Q693 -396 494 -292Q260 -169 200 76Q157 268 200 472Q209 513 221 554Q291 791
460 993Q630 1197 859 1315Q1100 1439 1355 1439Q1693 1439 1870 1216Q2025 1018 2002 727Q1997 667 1985 610Q1939 396 1793 233Q1587 4 1280 4Q1187 4 1143 38Q1111 63 1102 106Q974 16 826 16Q555 16 543 295Q539 380 556 461Q588 612 691 754Q783 880 908 959Q1048
1045 1188 1045Q1338 1045 1418 932L1456 1018H1702Z" />
<glyph unicode="A" glyph-name="A" horiz-adv-x="1391" d="M972 632L924 1088L676 632H972ZM1429 226L1381 0H930L978 226H1037L1006 405H549L447 226H509L461 0H10L58 226H174L730 1192H673L721 1418H1110L1324 226H1429Z" />
<glyph unicode="B" glyph-name="B" horiz-adv-x="1448" d="M718 857H944Q1055 857 1103 871Q1183 893 1224 968Q1237 995 1243 1021Q1253 1067 1235 1110Q1215 1158 1141 1172Q1106 1179 990 1179H787L718 857ZM587 240H856Q957 240 1010 256Q1085 276 1129 336Q1163
380 1172 425Q1179 458 1174 491Q1163 572 1091 597Q1032 618 912 618H667L587 240ZM1415 698T1440 566Q1453 495 1438 423Q1418 329 1352 236Q1185 0 805 0H100L148 226H324L529 1192H353L401 1418H1098Q1409 1418 1484 1234Q1523 1141 1501 1040Q1491 994 1470
949Q1414 833 1305 761Q1415 698 1440 566Z" />
<glyph unicode="C" glyph-name="C" horiz-adv-x="1429" d="M1373 1418H1599L1495 928H1249L1247 953Q1219 1208 1003 1208Q743 1208 609 964Q545 846 518 721Q484 558 505 438Q527 313 612 254Q675 212 756 212Q775 212 797 214Q906 228 1004 302Q1109 383 1167
508L1182 540L1435 498L1417 460Q1321 255 1139 124Q968 2 777 -20Q739 -24 704 -24Q557 -24 443 48Q290 145 247 345Q211 520 253 720Q300 939 418 1102Q538 1267 706 1356Q870 1441 1056 1441Q1244 1441 1355 1332L1373 1418Z" />
<glyph unicode="D" glyph-name="D" horiz-adv-x="1542" d="M787 1179L587 240H808Q1025 240 1125 323Q1271 443 1330 720Q1405 1073 1212 1154Q1155 1179 1004 1179H787ZM324 226L529 1192H353L401 1418H1057Q1217 1418 1300 1398Q1417 1370 1492 1295Q1676 1102
1594 717Q1530 413 1356 229Q1142 0 777 0H100L148 226H324Z" />
<glyph unicode="E" glyph-name="E" horiz-adv-x="1390" d="M787 1179L717 852H1301L1250 613H666L587 240H1114L1148 401H1375L1290 0H100L148 226H324L529 1192H353L401 1418H1591L1506 1017H1279L1314 1179H787Z" />
<glyph unicode="F" glyph-name="F" horiz-adv-x="1338" d="M787 1179L716 847H1232L1181 608H665L584 226H760L712 0H100L148 226H324L529 1192H353L401 1418H1539L1454 1017H1228L1263 1179H787Z" />
<glyph unicode="G" glyph-name="G" horiz-adv-x="1637" d="M1254 535H1038L1086 761H1699L1651 535H1510L1396 -2H1170L1190 93Q1125 47 1042 17Q922 -24 797 -24Q477 -24 327 178Q180 378 249 701Q292 905 416 1083Q663 1439 1094 1439Q1333 1439 1448 1309L1471
1416H1697L1593 928H1339L1336 952Q1313 1206 1045 1206Q770 1206 617 965Q545 848 516 712Q468 485 545 356Q625 217 838 217Q1045 217 1215 351L1254 535Z" />
<glyph unicode="H" glyph-name="H" horiz-adv-x="1684" d="M721 870H1332L1400 1192H1224L1272 1418H1885L1837 1192H1660L1455 226H1632L1584 0H971L1019 226H1195L1281 630H670L584 226H760L712 0H100L148 226H324L529 1192H353L401 1418H1013L965 1192H789L721 870Z" />
<glyph unicode="I" glyph-name="I" horiz-adv-x="812" d="M324 226L529 1192H353L401 1418H1013L965 1192H789L584 226H760L712 0H100L148 226H324Z" />
<glyph unicode="J" glyph-name="J" horiz-adv-x="1103" d="M820 1191H644L692 1417H1304L1256 1191H1079L925 466Q821 -23 405 -23Q206 -23 126 104Q56 216 96 404L107 456L355 489L345 443Q306 216 455 216Q549 216 598 283Q639 338 664 456L820 1191Z" />
<glyph unicode="K" glyph-name="K" horiz-adv-x="1613" d="M709 814L1168 1192H1065L1113 1418H1726L1678 1192H1518L1013 787L1383 226H1561L1513 0H901L949 226H1047L792 611L640 487L584 226H760L712 0H100L148 226H324L529 1192H353L401 1418H1013L965 1192H789L709
814Z" />
<glyph unicode="L" glyph-name="L" horiz-adv-x="1294" d="M587 240H1018L1052 401H1279L1194 0H100L148 226H324L529 1192H353L401 1418H1013L965 1192H789L587 240Z" />
<glyph unicode="M" glyph-name="M" horiz-adv-x="1910" d="M1887 1192L1682 226H1858L1810 0H1198L1246 226H1429L1579 931L1063 0H845L727 930L577 226H760L712 0H100L148 226H324L529 1192H353L401 1418H915L1038 368L1597 1418H2111L2063 1192H1887Z" />
<glyph unicode="N" glyph-name="N" horiz-adv-x="1688" d="M1412 1192H1229L1277 1418H1889L1841 1192H1664L1459 226H1591L1543 0H932L980 226H1063L731 956L576 226H760L712 0H100L148 226H324L529 1192H353L401 1418H822L1258 465L1412 1192Z" />
<glyph unicode="O" glyph-name="O" horiz-adv-x="1560" d="M468 485T548 351Q631 210 824 210Q1024 210 1167 357Q1300 494 1345 707Q1390 918 1316 1056Q1235 1206 1038 1206Q828 1206 687 1053Q559 914 511 687Q468 485 548 351ZM315 1010T535 1218Q770 1440
1087 1440Q1395 1440 1540 1222Q1676 1017 1610 706Q1544 396 1320 192Q1083 -24 775 -24Q476 -24 328 187Q183 392 247 690Q315 1010 535 1218Z" />
<glyph unicode="P" glyph-name="P" horiz-adv-x="1478" d="M703 784H1007Q1281 784 1323 985Q1348 1100 1279 1143Q1223 1179 1087 1179H787L703 784ZM324 226L529 1192H353L401 1418H1122Q1679 1418 1589 991Q1539 759 1348 642Q1186 543 952 543H651L584 226H760L712
0H100L148 226H324Z" />
<glyph unicode="Q" glyph-name="Q" horiz-adv-x="1586" d="M982 285T970 325L963 347L983 365Q1000 381 1045 424Q1073 451 1106 484L1150 526L1165 478Q1178 433 1197 395Q1307 525 1347 713Q1391 924 1318 1062Q1237 1212 1040 1212Q830 1212 688 1059Q561 920
512 693Q469 491 549 357Q632 216 825 216Q919 216 1000 248Q982 285 970 325ZM973 -18T776 -18Q477 -18 329 193Q185 398 248 696Q316 1016 536 1224Q771 1446 1088 1446Q1396 1446 1541 1228Q1677 1023 1611 712Q1550 424 1351 226Q1405 192 1471 171L1519 156L1476
114Q1470 108 1445 84Q1426 66 1413 54Q1366 8 1353 -4L1334 -24L1312 -17Q1214 15 1141 70Q973 -18 776 -18Z" />
<glyph unicode="R" glyph-name="R" horiz-adv-x="1708" d="M712 829H1050Q1165 829 1231 852Q1292 873 1327 915Q1366 960 1377 1013Q1393 1089 1349 1138Q1304 1189 1170 1189H789L712 829ZM1349 517T1474 226H1656L1608 0H995L1043 226H1154L1124 298Q1028 519
975 558Q946 580 914 588Q890 594 825 594H662L584 226H760L712 0H100L148 226H324L529 1192H353L401 1418H1210Q1396 1418 1490 1380Q1587 1339 1628 1236Q1668 1135 1642 1013Q1609 855 1481 745Q1388 665 1245 628Q1349 517 1474 226Z" />
<glyph unicode="S" glyph-name="S" horiz-adv-x="1346" d="M326 -2H100L208 506L453 527V490V489Q440 352 522 282Q601 216 749 216Q864 216 955 260Q1059 310 1078 402Q1100 503 979 552Q931 573 761 617Q580 661 512 703Q419 758 384 842Q348 926 370 1030Q394
1143 479 1242Q564 1340 697 1391Q827 1439 969 1439Q1072 1439 1166 1406Q1227 1383 1267 1349L1281 1416H1507L1410 961L1154 942L1163 984Q1183 1201 925 1201Q780 1201 706 1151Q638 1105 624 1042Q613 988 644 954Q679 915 875 869Q1083 818 1160 780Q1387
664 1335 417Q1290 209 1089 84Q914 -24 706 -24Q469 -24 340 65L326 -2Z" />
<glyph unicode="T" glyph-name="T" horiz-adv-x="1341" d="M791 1179H577L542 1017H316L401 1418H1542L1457 1017H1231L1266 1179H1050L847 226H1024L976 0H365L413 226H588L791 1179Z" />
<glyph unicode="U" glyph-name="U" horiz-adv-x="1686" d="M789 1191L665 605Q624 413 661 324Q707 218 876 218Q1060 218 1153 316Q1236 405 1279 605L1403 1191H1227L1275 1417H1887L1839 1191H1662L1537 604Q1404 -23 841 -23Q542 -23 436 147Q340 302 404
604L529 1191H353L401 1417H1013L965 1191H789Z" />
<glyph unicode="V" glyph-name="V" horiz-adv-x="1572" d="M1203 1192L1251 1418H1863L1815 1192H1633L1050 226H1151L1103 0H491L539 226H635L466 1192H263L311 1418H923L875 1192H741L867 334L1368 1192H1203Z" />
<glyph unicode="W" glyph-name="W" horiz-adv-x="2099" d="M1725 1192L1773 1418H2385L2337 1192H2153L1683 226H1800L1752 0H1141L1189 226H1324L1269 1038L867 226H983L935 0H324L372 226H501L450 1192H268L316 1418H928L880 1192H710L725 422L1215 1418H1492L1545
426L1895 1192H1725Z" />
<glyph unicode="X" glyph-name="X" horiz-adv-x="1433" d="M298 1192L346 1418H958L910 1192H810L930 943L1168 1192H1029L1077 1418H1689L1641 1192H1462L1037 748L1298 226H1436L1388 0H776L824 226H982L833 535L549 226H705L657 0H45L93 226H242L730 738L503
1192H298Z" />
<glyph unicode="Y" glyph-name="Y" horiz-adv-x="1445" d="M724 595L452 1192H273L321 1418H933L885 1192H763L919 846L1223 1192H1066L1114 1418H1726L1678 1192H1524L983 595L905 226H1091L1043 0H431L479 226H646L724 595Z" />
<glyph unicode="Z" glyph-name="Z" horiz-adv-x="1339" d="M577 1179L542 1017H316L401 1418H1517L1472 1206L483 240H1063L1097 401H1324L1239 0H100L147 220L1127 1179H577Z" />
<glyph unicode="[" glyph-name="bracketleft" horiz-adv-x="622" d="M601 1201L319 -129H495L448 -347H26L402 1419H824L777 1201H601Z" />
<glyph unicode="\" glyph-name="backslash" horiz-adv-x="804" d="M478 -44L402 1419H620L695 -44H478Z" />
<glyph unicode="]" glyph-name="bracketright" horiz-adv-x="622" d="M355 1201L402 1419H824L448 -347H26L73 -129H249L531 1201H355Z" />
<glyph unicode="^" glyph-name="asciicircum" horiz-adv-x="1156" d="M505 671H243L787 1417H969L1199 671H941L810 1098L505 671Z" />
<glyph unicode="_" glyph-name="underscore" horiz-adv-x="1105" d="M-55 -210L-12 -10H1113L1070 -210H-55Z" />
<glyph unicode="`" glyph-name="grave" horiz-adv-x="702" d="M623 1131L408 1448H744L842 1131H623Z" />
<glyph unicode="a" glyph-name="a" horiz-adv-x="1233" d="M820 463T762 463Q698 463 619 445Q443 406 421 300Q409 246 447 216Q484 188 551 188Q630 188 700 221Q775 256 819 319Q847 361 868 448Q820 463 762 463ZM818 86Q640 -22 467 -22Q314 -22 228 54Q130
142 163 295Q198 462 353 554Q490 635 711 644Q752 647 787 647Q862 647 910 638Q938 780 914 808Q874 851 785 855H766Q688 855 632 821Q582 788 541 702L539 697L525 664L285 698L310 743Q405 965 615 1035Q739 1077 849 1077Q953 1077 1043 1040Q1122 1007 1157
954Q1187 902 1188 823Q1186 776 1162 665L1069 225H1181L1133 -1H820L818 86Z" />
<glyph unicode="b" glyph-name="b" horiz-adv-x="1254" d="M544 370T570 303Q614 196 722 196Q834 196 915 301Q987 392 1016 527Q1044 661 1016 751Q981 856 870 856Q782 856 698 776Q613 695 578 532Q544 370 570 303ZM691 999Q803 1073 931 1073Q1144 1073
1236 901Q1314 752 1269 540Q1221 317 1077 161Q912 -21 690 -21Q539 -21 460 78L411 0H100L148 226H280L485 1192H353L401 1418H780L691 999Z" />
<glyph unicode="c" glyph-name="c" horiz-adv-x="1131" d="M1057 1050H1234L1157 689L916 660V691Q915 767 879 810Q841 856 771 856Q647 856 566 757Q493 669 463 527Q432 382 463 296Q501 196 621 196Q709 196 773 253Q834 308 867 402L880 437L1117 404L1103
368Q1039 194 897 88Q754 -21 577 -21Q347 -21 249 142Q162 290 211 522Q246 687 329 812Q409 937 544 1007Q670 1073 810 1073Q954 1073 1043 1010L1057 1050Z" />
<glyph unicode="d" glyph-name="d" horiz-adv-x="1254" d="M434 390T466 298Q503 194 615 194Q703 194 782 268Q863 344 898 509Q937 693 887 774Q839 853 747 853Q635 853 557 749Q491 660 462 523Q434 390 466 298ZM1069 224H1202L1154 -2H854L832 78Q711 -23
553 -23Q337 -23 246 152Q165 306 211 523Q258 743 399 896Q562 1071 779 1071Q910 1071 988 998L1029 1190H897L945 1416H1322L1069 224Z" />
<glyph unicode="e" glyph-name="e" horiz-adv-x="1174" d="M951 649Q955 738 921 789Q875 856 777 856Q679 856 600 788Q538 736 504 649H951ZM1115 323L1114 322Q949 -21 598 -21Q362 -21 257 134Q160 281 210 517Q260 752 416 905Q588 1073 821 1073Q1067 1073
1157 886Q1230 736 1182 510Q1179 493 1174 475L1165 442H450Q443 344 482 279Q533 196 645 196Q759 196 848 323H1115Z" />
<glyph unicode="f" glyph-name="f" horiz-adv-x="854" d="M424 841H279L323 1050H468L482 1113Q525 1316 661 1395Q740 1441 858 1441Q931 1441 1022 1423L1055 1416L970 1193L936 1199Q882 1209 843 1209Q786 1209 763 1189Q742 1172 726 1117Q723 1104 719 1085L714
1065Q714 1060 712 1050H902L858 841H669L538 226H656L608 0H100L148 226H293L424 841Z" />
<glyph unicode="g" glyph-name="g" horiz-adv-x="1259" d="M846 855T754 855Q644 855 564 757Q492 670 465 542Q436 405 468 318Q504 218 620 218Q714 218 795 291Q877 366 913 537Q948 700 897 779Q846 855 754 855ZM1209 824L1071 173Q1021 -62 949 -166Q789
-393 472 -393Q301 -393 204 -318Q89 -229 119 -63L125 -27H363L361 -57Q352 -174 518 -174Q699 -174 768 -33Q784 2 802 73Q687 0 559 0Q344 0 249 166Q166 314 212 531Q258 748 403 900Q568 1073 788 1073Q942 1073 1031 972L1079 1050H1381L1333 824H1209Z"
/>
<glyph unicode="h" glyph-name="h" horiz-adv-x="1335" d="M690 993Q813 1073 955 1073Q1331 1073 1242 655L1151 226H1283L1235 0H727L775 226H904L995 655Q1015 748 987 797Q957 849 873 849Q812 849 753 818Q691 786 658 733Q623 678 600 571L527 226H656L608
0H100L148 226H280L485 1192H353L401 1418H780L690 993Z" />
<glyph unicode="i" glyph-name="i" horiz-adv-x="709" d="M476 1148L533 1418H780L723 1148H476ZM280 226L407 824H275L323 1050H702L527 226H657L609 0H101L149 226H280Z" />
<glyph unicode="j" glyph-name="j" horiz-adv-x="525" d="M423 1146L480 1418H726L669 1146H423ZM354 824H221L269 1050H648L423 -11Q380 -212 261 -313Q167 -393 45 -393Q2 -393 -43 -383L-70 -377L-21 -144L21 -155Q49 -163 70 -163Q106 -163 125 -142Q156 -110
178 -7L354 824Z" />
<glyph unicode="k" glyph-name="k" horiz-adv-x="1221" d="M623 676L801 824H765L813 1050H1256L1208 824H1081L858 644L1049 226H1169L1121 0H638L686 226H752L645 472L566 408L527 226H609L561 0H100L148 226H280L485 1192H353L401 1418H780L623 676Z" />
<glyph unicode="l" glyph-name="l" horiz-adv-x="708" d="M525 226H656L608 0H100L148 226H279L484 1192H353L401 1418H778L525 226Z" />
<glyph unicode="m" glyph-name="m" horiz-adv-x="1872" d="M1355 1073T1527 1073Q1694 1073 1763 968Q1825 872 1790 706L1688 226H1820L1772 0H1394L1532 651Q1552 743 1548 779Q1535 848 1443 848Q1346 848 1280 778Q1220 714 1196 604L1116 226H1245L1197 0H821L963
670Q1001 848 871 848Q811 848 758 817Q703 786 673 732Q634 668 607 543L540 226H670L622 0H114L162 226H294L421 824H275L323 1050H643L656 962Q788 1073 955 1073Q1153 1073 1209 939Q1355 1073 1527 1073Z" />
<glyph unicode="n" glyph-name="n" horiz-adv-x="1348" d="M794 1073T971 1073Q1108 1073 1187 1008Q1277 937 1276 804Q1275 753 1250 636L1163 226H1296L1248 0H869L1003 630Q1022 722 1016 766Q1001 848 889 848Q775 848 705 770Q641 699 613 570L540 226H670L622
0H115L163 226H295L422 823H275L323 1050H644L657 959Q794 1073 971 1073Z" />
<glyph unicode="o" glyph-name="o" horiz-adv-x="1197" d="M537 197T640 197Q744 197 830 276Q923 361 958 527Q993 692 935 776Q883 855 780 856Q677 856 590 777Q498 693 463 527Q428 360 483 275Q537 197 640 197ZM632 1075T824 1075H844Q1048 1067 1153 930Q1245
808 1219 590Q1214 551 1206 514Q1172 353 1080 227Q993 109 861 44Q730 -21 594 -21Q562 -21 530 -18Q357 3 266 123Q157 268 210 519L216 544Q279 816 470 956Q632 1075 824 1075Z" />
<glyph unicode="p" glyph-name="p" horiz-adv-x="1267" d="M549 349T598 270Q646 196 734 196Q849 196 929 303Q1000 395 1029 533Q1058 666 1027 756Q992 861 883 861Q772 861 687 750Q614 653 586 520Q549 349 598 270ZM787 1073T942 1073Q1078 1073 1170 1000Q1259
929 1286 803Q1312 680 1280 532Q1247 375 1162 249Q1083 127 958 53Q831 -21 699 -21Q577 -21 500 45L459 -144H589L541 -370H33L81 -144H213L419 824H275L323 1050H643L658 968Q787 1073 942 1073Z" />
<glyph unicode="q" glyph-name="q" horiz-adv-x="1258" d="M435 394T468 301Q505 196 617 196Q704 196 783 271Q865 347 900 514Q938 692 885 778Q836 860 748 860Q637 860 558 755Q492 664 463 528Q435 394 468 301ZM1195 824L941 -370H566L614 -144H743L784
45Q681 -21 558 -21Q340 -21 247 158Q167 315 214 534Q285 871 531 1007Q651 1073 777 1073Q919 1073 1001 988L1014 1050H1381L1333 824H1195Z" />
<glyph unicode="r" glyph-name="r" horiz-adv-x="950" d="M673 993Q766 1073 858 1073Q951 1073 1035 1014L1062 999L927 765L895 787Q849 818 801 818Q784 818 766 814Q697 800 659 728Q617 647 595 548L527 226H656L608 0H100L148 226H280L407 824H275L323 1050H685L673
993Z" />
<glyph unicode="s" glyph-name="s" horiz-adv-x="1087" d="M1000 1050H1175L1106 724L861 691L863 726Q872 856 719 856Q649 856 599 836Q542 815 533 772Q524 731 582 705Q588 702 708 668Q878 620 940 590Q1097 517 1056 326Q1036 232 963 148Q815 -21 552 -21Q380
-21 302 65L275 0H100L178 366L424 397L422 362Q416 278 462 237Q508 196 597 196Q671 196 728 223Q790 253 801 308Q809 342 783 362Q735 399 605 428Q449 465 398 494Q250 572 288 752Q321 906 472 996Q599 1073 753 1073Q908 1073 980 1003L1000 1050Z" />
<glyph unicode="t" glyph-name="t" horiz-adv-x="754" d="M418 841H279L323 1050H462L501 1231L786 1423L707 1050H877L833 841H663L549 308Q537 247 539 234Q543 216 571 214L580 215Q604 215 655 222L696 228L647 -3L617 -9Q547 -21 492 -21Q314 -21 286 107Q273
160 306 317L418 841Z" />
<glyph unicode="u" glyph-name="u" horiz-adv-x="1342" d="M782 -22T610 -22Q474 -22 394 45Q305 116 306 247Q307 299 330 409L418 823H275L323 1049H831L783 823H664L589 472Q563 349 563 308Q566 257 599 228Q633 201 691 201Q754 201 813 232Q874 263 906
316Q942 374 967 489L1038 823H910L958 1049H1465L1417 823H1285L1158 225H1290L1242 -1H935L923 95Q782 -22 610 -22Z" />
<glyph unicode="v" glyph-name="v" horiz-adv-x="1138" d="M786 824L834 1050H1341L1293 824H1163L809 226H872L824 0H316L364 226H428L327 824H195L243 1050H751L703 824H584L646 362L910 824H786Z" />
<glyph unicode="w" glyph-name="w" horiz-adv-x="1632" d="M1393 824H1278L1326 1050H1835L1787 824H1635L1322 226H1389L1341 0H970L942 622L646 0H269L317 226H392L336 824H195L243 1050H751L703 824H586L612 401L923 1050H1155L1185 416L1393 824Z" />
<glyph unicode="x" glyph-name="x" horiz-adv-x="1089" d="M205 824L253 1050H737L689 824H672L704 748L774 824H750L798 1050H1282L1234 824H1067L811 553L971 226H1107L1059 0H575L623 226H678L623 349L516 226H562L514 0H30L78 226H224L515 544L378 824H205Z" />
<glyph unicode="y" glyph-name="y" horiz-adv-x="1179" d="M195 823L243 1049H751L703 823H607L669 354L933 823H826L874 1049H1382L1334 823H1182L705 10Q592 -183 536 -247Q408 -394 253 -394Q199 -394 136 -370L116 -363L139 -123L187 -136Q241 -152 275 -152Q340
-152 382 -110Q407 -84 462 12Q466 21 477 39L347 823H195Z" />
<glyph unicode="z" glyph-name="z" horiz-adv-x="1139" d="M540 835L523 751H296L359 1050H1233L1198 886L493 223H859L876 300H1103L1039 0H100L140 190L839 835H540Z" />
<glyph unicode="{" glyph-name="braceleft" horiz-adv-x="810" d="M554 446T568 342Q578 251 545 93Q503 -103 504 -126Q511 -189 634 -189H670L622 -414H586Q343 -414 288 -288Q249 -195 302 64Q333 210 334 231Q342 322 306 359Q278 387 217 388L183 389L231
618L267 619Q329 621 367 647Q417 683 449 770Q457 794 486 930Q541 1180 615 1275Q728 1419 976 1419H1012L964 1194H928Q832 1194 802 1171Q768 1145 748 1049Q694 795 669 733Q607 584 483 504Q554 446 568 342Z" />
<glyph unicode="|" glyph-name="bar" horiz-adv-x="425" d="M12 -414L402 1419H627L237 -414H12Z" />
<glyph unicode="}" glyph-name="braceright" horiz-adv-x="810" d="M541 504Q450 584 453 733Q454 795 508 1049Q528 1145 506 1171Q485 1194 390 1194H354L402 1419H438Q686 1419 737 1275Q771 1180 720 930Q691 794 689 770Q682 683 718 647Q745 621 807 619L841
618L793 389L757 388Q696 387 656 359Q604 322 574 231Q567 210 536 64Q479 -195 399 -288Q291 -414 48 -414H12L60 -189H96Q218 -189 252 -126Q263 -103 305 93Q338 251 388 342Q446 446 541 504Z" />
<glyph unicode="~" glyph-name="asciitilde" horiz-adv-x="1170" d="M431 1005T570 1005H572Q654 1005 795 944Q926 888 995 887H1001Q1108 887 1217 984L1293 1051L1232 764L1219 754Q1083 647 946 647H943Q864 648 722 700Q590 749 522 749Q413 749 300 659L228
601L285 871L296 881Q431 1005 570 1005Z" />
</font>
</defs>
</svg>
